<?xml version="1.0" standalone="no"?><!DOCTYPE svg PUBLIC "-//W3C//DTD SVG 1.1//EN" "http://www.w3.org/Graphics/SVG/1.1/DTD/svg11.dtd"><svg t="1781234196132" class="icon" viewBox="0 0 1024 1024" version="1.1" xmlns="http://www.w3.org/2000/svg" p-id="14515" xmlns:xlink="http://www.w3.org/1999/xlink" width="256" height="256"><path d="M512 1024a512 512 0 1 1 512-512 512 512 0 0 1-512 512z m261.12-324.288l55.424 32a32 32 0 0 0 32-55.456l-55.424-32a32 32 0 0 0-32 55.456zM319.68 896.32h36.8v-44.8l17.152-17.984 34.944 62.656h39.68l-50.944-88.544 47.552-50.976h-45.312l-43.072 49.12v-102.176H319.68v192.576zM96 512a32 32 0 0 0 32 32h64a32 32 0 0 0 0-64H128a32 32 0 0 0-32 32z m154.848-187.712l-55.424-32a32 32 0 0 0-32 55.424l55.424 32a32 32 0 1 0 32-55.424zM262.56 656a32 32 0 0 0-43.712-11.712l-55.424 32a32 32 0 0 0 32 55.456l55.424-32a32 32 0 0 0 11.712-43.744z m117.152-437.152l-32-55.424a32 32 0 0 0-55.424 32l32 55.424a32 32 0 0 0 55.424-32zM544 128a32 32 0 0 0-64 0v64a32 32 0 1 0 64 0V128z m35.616 316A96 96 0 0 0 512 416l-160-64 63.776 159.456a96 96 0 1 0 163.84-67.456z m28.032 316.8a47.04 47.04 0 0 0-17.6-18.784 49.632 49.632 0 0 0-25.376-6.208 59.104 59.104 0 0 0-47.424 24.992V739.2h-37.088v157.056h40.256v-76.32a114.816 114.816 0 0 1 3.2-32.384 28.128 28.128 0 0 1 27.456-20.128 20.608 20.608 0 0 1 12.256 3.2 18.944 18.944 0 0 1 6.656 9.92 122.528 122.528 0 0 1 2.144 29.568v86.08h40.256v-75.424a115.424 115.424 0 0 1 3.2-32.48 29.6 29.6 0 0 1 10.752-15.584 26.848 26.848 0 0 1 16-5.344 18.912 18.912 0 0 1 17.184 8.896 68.832 68.832 0 0 1 4.16 30.144v89.792H704v-100.416a91.712 91.712 0 0 0-4.16-32.544 42.464 42.464 0 0 0-17.344-20.64 53.824 53.824 0 0 0-28.352-7.008 51.552 51.552 0 0 0-24.8 6.208 70.976 70.976 0 0 0-21.696 18.912zM720 151.808a32 32 0 0 0-43.712 11.712l-32 55.424a32 32 0 1 0 55.424 32l32-55.424a32 32 0 0 0-11.712-43.808z m152.256 152.288a32 32 0 0 0-43.712-11.712l-55.424 32a32 32 0 0 0 32 55.424l55.424-32a32 32 0 0 0 11.712-43.808zM896 480h-64a32 32 0 0 0 0 64h64a32 32 0 0 0 0-64z m-384 64a32 32 0 1 1 32-32 32 32 0 0 1-32 32z" p-id="14516" fill="#418FAF"></path></svg>